<svg width="10" height="10" viewBox="0 0 10 10" fill="none" xmlns="http://www.w3.org/2000/svg">
<path d="M7.21639 1.30602C7.62442 0.897994 8.28596 0.897993 8.69398 1.30602C9.10201 1.71405 9.10201 2.37559 8.69398 2.78361L2.78362 8.69398C2.37559 9.10201 1.71405 9.10201 1.30603 8.69398C0.898 8.28595 0.898 7.62441 1.30603 7.21639L7.21639 1.30602Z" fill="#EFF1F5" style="fill:#EFF1F5;fill:color(display-p3 0.9373 0.9451 0.9608);fill-opacity:1;"/>
<path d="M2.78361 1.30602C2.37558 0.897994 1.71404 0.897993 1.30602 1.30602C0.897994 1.71405 0.897994 2.37559 1.30602 2.78361L7.21638 8.69398C7.62441 9.10201 8.28595 9.10201 8.69397 8.69398C9.102 8.28595 9.102 7.62441 8.69397 7.21639L2.78361 1.30602Z" fill="#EFF1F5" style="fill:#EFF1F5;fill:color(display-p3 0.9373 0.9451 0.9608);fill-opacity:1;"/>
</svg>
