<svg width="10" height="10" viewBox="0 0 10 10" fill="none" xmlns="http://www.w3.org/2000/svg">
<path d="M2 3C1.44772 3 1 2.55228 1 2C1 1.44772 1.44772 1 2 1L8 1C8.55228 1 9 1.44771 9 2C9 2.55228 8.55228 3 8 3L2 3Z" fill="#EFF1F5" style="fill:#EFF1F5;fill:color(display-p3 0.9373 0.9451 0.9608);fill-opacity:1;"/>
<path d="M2 6C1.44772 6 1 5.55228 1 5C1 4.44772 1.44772 4 2 4L8 4C8.55228 4 9 4.44772 9 5C9 5.55228 8.55228 6 8 6L2 6Z" fill="#EFF1F5" style="fill:#EFF1F5;fill:color(display-p3 0.9373 0.9451 0.9608);fill-opacity:1;"/>
<path d="M2 9C1.44772 9 1 8.55228 1 8C1 7.44772 1.44772 7 2 7H6C6.55228 7 7 7.44771 7 8C7 8.55228 6.55228 9 6 9L2 9Z" fill="#EFF1F5" style="fill:#EFF1F5;fill:color(display-p3 0.9373 0.9451 0.9608);fill-opacity:1;"/>
</svg>
