<svg width="10" height="10" viewBox="0 0 10 10" fill="none" xmlns="http://www.w3.org/2000/svg">
<path d="M4 1C2.34315 1 1 2.34315 1 4C1 4.55228 1.44772 5 2 5C2.51768 5 2.94379 4.60667 2.99512 4.10254L3.00488 3.89746C3.05621 3.39333 3.48232 3 4 3H6V3.77765C6 3.85959 6.04334 3.93514 6.113 3.97382C6.18268 4.01249 6.26739 4.00799 6.33315 3.96253L8.90458 2.18488C8.96419 2.14367 9 2.0743 9 2C9 1.9257 8.96419 1.85633 8.90458 1.81512L6.33315 0.0374661C6.26739 -0.00799084 6.18268 -0.012486 6.113 0.0261822C6.04334 0.0648555 6 0.140412 6 0.222349V1H4Z" fill="#EFF1F5" style="fill:#EFF1F5;fill:color(display-p3 0.9373 0.9451 0.9608);fill-opacity:1;"/>
<path d="M6 8C7.65685 8 9 6.65685 9 5C9 4.44772 8.55228 4 8 4C7.48232 4 7.05621 4.39333 7.00488 4.89746L6.99512 5.10254C6.94379 5.60667 6.51768 6 6 6H4V5.22235C4 5.14041 3.95666 5.06486 3.887 5.02618C3.81732 4.98751 3.73261 4.99201 3.66685 5.03747L1.09542 6.81512C1.03581 6.85633 1 6.9257 1 7C1 7.0743 1.03581 7.14367 1.09542 7.18488L3.66685 8.96253C3.73261 9.00799 3.81732 9.01249 3.887 8.97382C3.95666 8.93514 4 8.85959 4 8.77765V8H6Z" fill="#EFF1F5" style="fill:#EFF1F5;fill:color(display-p3 0.9373 0.9451 0.9608);fill-opacity:1;"/>
</svg>
